<?xml version="1.0" standalone="no"?>
<!DOCTYPE svg PUBLIC "-//W3C//DTD SVG 20010904//EN"
 "http://www.w3.org/TR/2001/REC-SVG-20010904/DTD/svg10.dtd">
<svg version="1.0" xmlns="http://www.w3.org/2000/svg"
 width="512.000000pt" height="512.000000pt" viewBox="0 0 512.000000 512.000000"
 preserveAspectRatio="xMidYMid meet">
<metadata>
Created by potrace 1.14, written by Peter Selinger 2001-2017
</metadata>
<g transform="translate(0.000000,512.000000) scale(0.100000,-0.100000)"
fill="#000000" stroke="none">
<path d="M2495 4998 c0 -126 -5 -164 -38 -274 -23 -77 -56 -150 -115 -252 -67
-117 -81 -156 -79 -224 2 -56 5 -62 76 -152 42 -53 64 -111 70 -191 1 -6 63
-10 163 -10 90 0 191 -4 225 -9 l61 -8 -5 103 c-5 132 -31 192 -106 249 -82
62 -105 83 -116 107 -18 38 -23 107 -11 153 20 85 22 95 24 175 4 133 -33 288
-88 372 -30 45 -52 73 -57 73 -2 0 -4 -51 -4 -112z"/>
<path d="M3752 4747 c-80 -164 -250 -325 -455 -428 -69 -34 -131 -91 -155
-141 -16 -34 -19 -56 -15 -103 11 -121 7 -169 -20 -225 -15 -30 -25 -55 -24
-56 1 -1 34 -18 73 -37 81 -41 189 -113 253 -169 24 -21 47 -38 52 -38 10 0
85 156 97 205 16 58 8 114 -24 181 -41 86 -41 173 1 229 17 21 37 46 45 55 26
27 87 104 94 120 3 8 16 31 27 50 31 51 69 156 83 230 11 58 13 177 2 187 -2
2 -17 -25 -34 -60z"/>
<path d="M1266 4704 c102 -133 166 -372 154 -569 -6 -100 3 -163 31 -221 27
-54 66 -84 139 -110 54 -19 119 -72 151 -123 l16 -25 90 58 c81 51 257 136
283 136 23 0 16 23 -29 91 -72 109 -124 144 -232 154 -156 16 -198 47 -229
170 -36 143 -111 275 -211 373 -48 47 -127 96 -172 108 l-29 7 38 -49z"/>
<path d="M4660 3854 c-61 -42 -181 -95 -246 -109 -95 -22 -198 -31 -308 -30
-193 4 -271 -34 -310 -148 -32 -91 -57 -121 -155 -184 -2 -1 17 -33 42 -70 51
-77 115 -203 142 -280 l19 -52 50 27 c77 40 124 79 150 125 24 42 30 65 41
162 7 65 13 84 37 118 22 30 77 59 148 77 144 37 331 175 416 306 28 44 54
107 43 103 -2 -1 -33 -21 -69 -45z"/>
<path d="M342 3802 c-8 -6 5 -16 40 -32 158 -71 303 -218 411 -417 64 -117
102 -162 159 -190 40 -21 55 -22 162 -18 110 5 119 4 168 -21 28 -14 54 -22
58 -17 5 4 24 39 44 76 47 89 93 158 155 232 28 32 51 62 51 65 0 3 -12 11
-27 17 -16 6 -68 28 -117 48 -115 48 -169 49 -269 3 -118 -55 -184 -43 -272
47 -85 86 -222 162 -351 195 -81 20 -189 26 -212 12z"/>
<path d="M2375 3653 c-285 -49 -523 -193 -700 -422 -69 -91 -161 -273 -180
-358 -2 -10 -12 -52 -21 -93 -18 -80 -24 -286 -10 -375 72 -471 454 -856 916
-923 60 -9 294 -9 347 0 402 69 727 341 862 723 47 132 60 221 57 380 -3 146
-6 167 -28 250 -5 22 -12 47 -13 55 -12 52 -122 282 -144 300 -3 3 -19 23 -35
45 -53 73 -182 193 -269 249 -134 88 -270 143 -415 167 -99 17 -276 18 -367 2z"/>
<path d="M1094 2869 c-98 -13 -158 -51 -214 -139 -44 -68 -81 -92 -155 -98
-39 -3 -76 0 -97 8 -18 7 -89 14 -158 16 -133 3 -207 -7 -307 -45 -58 -22
-153 -84 -153 -100 0 -4 17 -5 38 -1 79 14 226 0 329 -31 100 -31 168 -61 273
-122 89 -51 175 -84 210 -81 8 1 27 2 42 3 15 1 49 20 81 45 74 61 126 86 189
93 l53 5 0 162 c0 88 4 189 8 222 l9 62 -49 3 c-28 2 -72 1 -99 -2z"/>
<path d="M4205 2839 c-16 -5 -41 -19 -55 -32 -74 -68 -154 -106 -226 -109
l-34 -1 -1 -101 c0 -56 -2 -117 -4 -136 -5 -55 -15 -132 -21 -166 l-6 -31 91
3 c166 5 211 27 293 144 18 25 39 51 47 58 44 36 127 49 192 31 107 -29 248
-36 361 -16 99 17 213 66 253 107 l27 28 -34 -7 c-35 -8 -181 -6 -228 2 -64
12 -160 39 -205 59 -84 35 -98 42 -150 72 -27 16 -68 39 -90 51 -74 41 -158
59 -210 44z"/>
<path d="M1185 2114 c-114 -68 -151 -122 -161 -236 -14 -150 -38 -181 -178
-227 -203 -67 -378 -205 -455 -358 -20 -40 -30 -82 -13 -57 17 27 151 101 237
132 80 29 292 64 328 54 4 -1 44 -2 90 -3 161 -2 238 42 278 158 24 67 72 129
129 165 l25 15 -43 64 c-43 63 -116 206 -145 284 -8 21 -18 40 -23 42 -5 1
-36 -14 -69 -33z"/>
<path d="M3745 1970 c-42 -83 -130 -214 -179 -266 -20 -21 -36 -41 -36 -44 0
-3 42 -27 94 -54 84 -44 100 -48 162 -49 57 -1 81 5 141 31 107 48 179 41 248
-24 163 -153 361 -241 534 -236 82 2 94 11 41 31 -160 62 -321 225 -435 440
-51 96 -96 151 -150 179 -29 15 -58 17 -200 11 -59 -3 -79 1 -128 23 l-57 27
-35 -69z"/>
<path d="M1624 1563 c-9 -16 -24 -39 -34 -53 -9 -14 -26 -50 -37 -80 -27 -75
-22 -140 16 -229 56 -126 49 -175 -35 -271 -98 -114 -153 -207 -195 -330 -21
-63 -35 -204 -24 -246 7 -28 8 -27 42 41 79 160 213 290 412 400 119 66 143
85 180 140 25 38 26 46 26 175 0 122 2 140 24 183 13 26 22 49 20 51 -2 1 -22
11 -44 20 -86 39 -250 149 -285 191 -29 35 -48 37 -66 8z"/>
<path d="M3300 1439 c-60 -42 -233 -130 -292 -149 -21 -6 -38 -14 -38 -17 0
-10 61 -118 78 -138 58 -68 105 -89 226 -100 111 -10 157 -46 188 -150 29 -96
53 -148 105 -229 79 -123 184 -218 287 -261 l39 -16 -37 50 c-48 66 -103 184
-126 276 -16 63 -35 194 -32 230 15 262 -27 356 -178 400 -41 12 -96 57 -127
102 -15 24 -30 42 -33 42 -3 -1 -30 -18 -60 -40z"/>
<path d="M2250 1172 c0 -152 32 -219 141 -293 89 -60 118 -142 89 -249 -35
-131 -33 -302 6 -436 18 -65 70 -161 92 -173 15 -8 17 2 17 118 0 71 6 150 14
181 27 110 88 252 156 360 32 51 65 145 65 185 0 45 -17 82 -56 125 -44 47
-81 125 -89 185 -4 28 -8 51 -9 51 0 1 -68 4 -151 7 -82 4 -163 9 -180 12 -16
3 -45 7 -62 10 l-33 6 0 -89z"/>
</g>
</svg>
